<?xml version="1.0" encoding="utf-8"?>
<!-- Generator: Adobe Illustrator 23.0.1, SVG Export Plug-In . SVG Version: 6.00 Build 0)  -->
<svg version="1.1" id="Camada_1" xmlns="http://www.w3.org/2000/svg" xmlns:xlink="http://www.w3.org/1999/xlink" x="0px" y="0px"
	 viewBox="0 0 500 500" style="enable-background:new 0 0 500 500;" xml:space="preserve">
<style type="text/css">
	.st0{fill:#54C682;}
	.st1{fill:#FFFFFF;}
</style>
<g id="Corpo">
	<g>
		<path class="st0" d="M105.7,303.9v147.4c0,4.3,4.1,6.5,6.4,3.4l127.8-150.8H105.7z"/>
	</g>
	<path class="st0" d="M488,45.7H12c-6.6,0-12,5.4-12,12V367c0,6.6,5.4,12,12,12h164l77.2-90.9c2.3-3.1,6.4-1,6.4,3.4v82.8
		c0,2.6,2.1,4.7,4.7,4.7H488c6.6,0,12-5.4,12-12V57.7C500,51,494.6,45.7,488,45.7z"/>
</g>
<g id="Olhos">
	<path id="Olho_2" class="st1" d="M314.7,149.7c-17.4,1.1-31.5,15.2-32.6,32.7c-1.3,21.1,16.1,38.5,37.2,37.2
		c17.4-1.1,31.6-15.2,32.6-32.6C353.3,165.8,335.8,148.4,314.7,149.7z"/>
	<path id="Olho_1" class="st1" d="M180.7,149.7c-17.4,1.1-31.5,15.2-32.7,32.7c-1.3,21.1,16.1,38.5,37.2,37.2
		c17.4-1.1,31.6-15.2,32.6-32.6C219.3,165.8,201.8,148.4,180.7,149.7z"/>
</g>
</svg>
