<svg version="1" xmlns="http://www.w3.org/2000/svg" width="933.333" height="933.333" viewBox="0 0 700.000000 700.000000"><path d="M21.5 64c-12 .6-16.6 2.8-19.6 9.4-1.8 4-1.9 11.8-1.9 223 0 161 .3 219.9 1.1 222.7 1.4 4.4 6.1 9.2 10.4 10.6 1.8.5 30.4.9 69.8.9l66.7-.1v51.1c0 30.2.3 52.1.9 53.6 1.3 3.5 4.6 4.2 7.5 1.5 1.9-1.8 12-13.6 20.8-24.2.9-1.1 4.9-5.8 8.9-10.5 9.2-10.8 13.4-15.8 25.4-30 11.5-13.6 11.6-13.7 22.5-26.5 4.7-5.5 9.6-11.3 11-12.9 1.4-1.7 4.1-4.8 6.1-7 1.9-2.3 12.1-14.2 22.5-26.6 10.5-12.4 27.8-32.9 38.5-45.5 10.7-12.7 22.8-27.1 26.9-32 13.1-15.8 17.4-20.5 18.8-20.5.6 0 2 .8 3.3 1.9l2.3 1.8v60.4c.1 61.7.3 64.6 3.9 65 5.7.7 318 .3 320.4-.3 4.3-1.2 9.3-5.4 10.9-9.5 1.2-2.7 1.4-39.7 1.4-223.1V77.4l-2.2-4.4c-1.7-3.4-3.5-5.1-6.9-6.8l-4.7-2.3-327.3-.2c-180.1-.1-331.9 0-337.4.3zm244 146.5c17.4 3.3 31.2 15.7 37.1 33.2 4.5 13.2 2.5 29-5.1 40.8-19.2 30-62.4 30.5-82.1.9-9.3-14.1-10.6-32.5-3.3-47.8 7.1-14.8 21.4-25.4 36.9-27.3 2.5-.3 4.6-.6 4.7-.7.5-.4 8.1.2 11.8.9zm187-.1c3 .4 8.4 2.3 13.3 4.7 24.4 12.3 33.7 40.8 21.4 65.9-2.8 5.9-15.1 19-17.7 19-.8 0-1.5.3-1.5.8 0 .8-10.6 5.1-14.7 5.8-12.8 2.4-26-.4-37-7.8-28.2-19-28.3-61.2-.1-80.6 4.2-2.9 13.8-7.6 13.8-6.8 0 .2 2.4-.2 5.3-.9 5.1-1.2 6.9-1.2 17.2-.1z"/></svg>